<?xml version="1.0" encoding="utf-8"?>
<!-- Generator: Adobe Illustrator 19.1.0, SVG Export Plug-In . SVG Version: 6.00 Build 0)  -->
<!DOCTYPE svg PUBLIC "-//W3C//DTD SVG 1.1//EN" "http://www.w3.org/Graphics/SVG/1.1/DTD/svg11.dtd">
<svg version="1.1" id="Layer_1" xmlns="http://www.w3.org/2000/svg" xmlns:xlink="http://www.w3.org/1999/xlink" x="0px" y="0px"
	 viewBox="230 288.4 1072.4 217.6" style="enable-background:new 230 288.4 1072.4 217.6;" xml:space="preserve">
<style type="text/css">
	.st0{fill:#FFFFFF;}
</style>
<g>
	<path class="st0" d="M771,349.6c-9.3,0-18.3,1.8-27.1,5.1v-42.9h-18.8v142.4h18.8v-81.8c8.5-3.3,16.9-5,25.3-5
		c6.9,0,12.4,1.7,16.7,5s6.4,10.1,6.4,20.2v61.4v0.1h19v-60.6c0-14.1-3.4-25-10.5-32.6C793.7,353.5,783.8,349.6,771,349.6z"/>
	<path class="st0" d="M647.2,363.1c-8.2,9.1-12.2,22.2-12.2,39.4c0,17.2,4.1,30.4,12.2,39.4c8.2,9.1,20,13.6,35.6,13.6
		c10.5,0,20.5-1.9,30.2-5.7v-17.8c-9.3,4.5-18.8,6.6-28.6,6.6c-4.4,0-8.2-0.4-11.4-1.2c-3.3-0.8-6.3-2.4-9.5-4.8
		c-3-2.4-5.4-6.1-7-11.2c-1.6-5-2.4-11.4-2.4-18.9c0-14.4,2.7-23.9,8-28.9c5.4-4.9,12.7-7.3,22.2-7.3c0.1,0,0.3,0,0.4,0
		c9.4,0,18.9,2.3,28.2,6.8v-18.1c-9.7-3.9-19.8-5.7-30.2-5.7C667.2,349.5,655.3,354,647.2,363.1z"/>
	<path class="st0" d="M1100.7,397.1c-5.1-2-10.2-3.7-15.3-5.2c-5-1.5-9.4-3.2-13-5c-3.5-1.9-5.4-4.4-5.4-7.3
		c0-8.8,6.8-13.2,20.4-13.2c7.9,0,16.3,2.1,25.1,6.1v-16.2c-9-4.5-18.2-6.7-27.4-6.7c-12.4,0-21.6,3-27.7,9
		c-6.1,5.9-9.1,13.2-9.1,21.7c0,6.6,1.8,11.9,5.3,16.1c3.5,4.1,7.9,7.1,13,8.8c5.1,1.8,10.3,3.3,15.4,4.8c5.1,1.4,9.6,3.5,13.1,6.1
		c3.5,2.6,5.3,6,5.3,10.2c0,3.7-1.7,6.7-5.1,9.1c-3.4,2.4-8.5,3.5-15,3.5c-0.1,0-0.3,0-0.4,0c-10.1,0-19.6-2.4-28.4-7.5v17.2
		c8.8,4.9,18.7,7.2,29.6,7.2c13,0,22.5-2.9,28.8-9c6.2-6.1,9.3-13.3,9.3-21.5c0-7.1-1.8-13-5.4-17.8
		C1110.2,402.7,1105.8,399.1,1100.7,397.1z"/>
	<path class="st0" d="M1011.7,320.7H993v30.5h-17.7v16.1H993v58.4c0,6.6,1.3,11.9,3.9,16.4s5.7,7.5,9.7,9.3
		c3.9,1.8,7.3,2.9,10.1,3.5c2.8,0.6,5.5,0.9,7.9,0.9c0.2,0,0.4,0,0.5,0c4.6,0,9.3-1,14-2.9v-17.1c-3.3,1.9-7.3,2.9-11.9,2.9
		c-0.1,0-0.1,0-0.2,0c-10.1,0-15.1-4-15.2-11.9v-59.6h27.3v-16.1h-27.3V320.7z"/>
	<path class="st0" d="M907.9,392.6c0-13.9-3.8-24.6-11.6-32c-7.8-7.3-18.8-11.1-33.1-11.1c-10.9,0-21.3,1.9-31,5.6v16.1
		c10.1-3.4,19.6-5.1,28.4-5.1c9.8,0,16.9,1.9,21.2,5.6c4.3,3.8,6.6,10,7.1,18.7c-6.1-0.8-12.3-1.2-18.7-1.2c-15,0-26.8,2.9-35.4,8.6
		c-8.6,5.7-12.8,13.7-12.8,23.9c0,2.3,0.2,4.5,0.6,6.8c0.4,2.3,1.5,5.1,3.2,8.7c1.8,3.4,4,6.6,6.9,9.1c2.9,2.6,7.1,4.9,12.8,6.7
		c5.7,1.9,12.4,2.9,19.9,2.9c7.4,0,13.9-0.9,19.5-2.8c5.7-1.9,9.8-4.1,12.7-6.6c2.9-2.6,5-5.6,6.7-9c1.7-3.4,2.8-6.2,3.2-8.4
		c0.3-2.2,0.6-4.5,0.3-6.7V392.6z M889.2,422c0,11.1-7.8,16.7-23.3,16.7c-0.2,0-0.3,0-0.3,0c-16.5,0-24.6-5.8-24.6-17.4
		c0-3.4,1.2-6.3,3.4-8.7s5.1-4.2,8.6-5.3s6.7-1.9,9.7-2.4c2.9-0.4,5.8-0.8,8.6-0.8c7,0,12.9,0.5,17.8,1.3v-0.1h0.2V422z"/>
	<path class="st0" d="M922.1,454.2h18.8v-82.9c10.6-2.8,20.9-4.3,31.2-4.4v-17.3c-16.2,0-32.8,3.4-50,10.3V454.2z"/>
	<path class="st0" d="M367.8,464.1c23,0,41.7-19,41.7-41.7c0-0.1-41.3,0.1-41.7-0.3C367.8,422.1,367.7,464.1,367.8,464.1z"/>
	<path class="st0" d="M616.6,359.4c-7.2-6.8-17.3-10.2-30.3-10.2c-12.2,0-24.6,2.7-37.6,7.8c-7.2-5.3-16.3-7.8-27.4-7.8
		c-11.2,0-22,2.1-32.7,6.1c-9.8-25.2-36.5-40.4-63.6-34.6c-19.7,4.3-34.7,18.3-41,35.9c-10.1-2.8-20.9-3.4-31.9-1
		c-36.2,7.7-59.3,43.6-51.7,80.1c0,0.2,0.1,0.4,0.1,0.6h-45.3l52-68v-17.2h-75v17.4h51L231,436.7v17.6h76c13.8,25.5,43,40,72.7,33.6
		c28.1-6,48.4-28.8,52.5-55.8c5.1,0.4,10.5,0,15.8-1.1c12.4-2.7,23-9.3,30.7-18.3v41.4h18.8v-83.7c7.6-2.1,15.1-3.2,22.4-3.2
		c9.4,0,15.7,1.8,18.9,5.2c3.1,3.4,4.7,8.2,4.7,14.3v67.4h18.8v-66.3c0-0.2,0-0.4,0-0.6c0-5.5-0.8-10.3-2.4-14.7
		c9.3-3.9,18.4-5.7,27.5-5.7c8.3,0,14,1.8,16.8,5.4c2.9,3.6,4.4,8.4,4.4,14.3v67.5v0.1h19v-66.4
		C627.5,375.7,623.9,366.2,616.6,359.4z M437.2,415.8c-7.7,0-14.7-2.1-20.9-5.9c1,4,1.5,8.2,1.5,12.4c0,27.6-22.5,50-50,50
		s-50-22.5-50-50s22.4-50,50-50c11.4,0,22,3.9,30.4,10.3c-0.3-1.9-0.5-3.9-0.5-6c0-21.9,17.7-39.6,39.6-39.6
		c22,0,39.5,17.6,39.5,39.3C476.8,398,459,415.8,437.2,415.8z"/>
	<path class="st0" d="M1143.2,404.7c-4.1,0-7.4,1-9.7,3c-2.3,2-3.4,4.9-3.4,8.6v3.7h-5.3v6.3h5.3V453h9.6v-26.8h7v-6.3h-7v-3.7
		c0-1.5,0.4-2.6,1.2-3.4c0.8-0.8,2-1.2,3.5-1.2c0.7,0,1.2,0,1.7,0.1c0.5,0.1,1,0.1,1.5,0.2l0.8-6.6c-1-0.2-1.9-0.4-2.8-0.5
		S1144.1,404.7,1143.2,404.7z"/>
	<path class="st0" d="M1166.8,419.3c-5.2,0-9.3,1.6-12.2,4.7c-2.9,3.1-4.4,7.2-4.4,12.1v0.6c0,5,1.5,9,4.4,12.1
		c3,3.1,7.1,4.7,12.3,4.7c5.2,0,9.3-1.6,12.3-4.7c3-3.1,4.4-7.2,4.4-12.1v-0.6c0-5-1.5-9-4.5-12.1
		C1176.2,420.9,1172.1,419.3,1166.8,419.3z M1174,436.8c0,3-0.6,5.4-1.7,7.2c-1.1,1.8-3,2.7-5.4,2.7c-2.5,0-4.4-0.9-5.5-2.7
		c-1.1-1.8-1.7-4.2-1.7-7.2v-0.6c0-2.9,0.6-5.3,1.7-7.2c1.1-1.9,3-2.8,5.4-2.8c2.5,0,4.3,0.9,5.5,2.8c1.2,1.9,1.7,4.2,1.7,7.2V436.8
		z"/>
	<path class="st0" d="M1206.6,419.3c-1.7,0-3.2,0.5-4.6,1.5s-2.4,2.3-3.2,4l-0.4-4.9h-8.9V453h9.5v-22.3c0.5-1,1.2-1.8,2.1-2.3
		c0.9-0.5,2.1-0.8,3.5-0.8l3.5,0.1l1-7.9c-0.4-0.1-0.8-0.2-1.2-0.3C1207.5,419.4,1207,419.3,1206.6,419.3z"/>
	<path class="st0" d="M1234,444.1c-0.7,0.9-1.6,1.6-2.7,2c-1.1,0.5-2.4,0.7-3.9,0.7c-1.7,0-3-0.5-3.9-1.6c-0.9-1.1-1.3-2.8-1.3-5.2
		v-20.1h-9.5v20c0,4.7,1.1,8.2,3.2,10.4c2.1,2.2,5,3.3,8.8,3.3c2.2,0,4.1-0.5,5.8-1.4c1.7-0.9,3.1-2.3,4.2-4l0.9,4.8h8.2v-33.1h-9.6
		V444.1z"/>
	<path class="st0" d="M1298.4,422.7c-2-2.3-4.8-3.4-8.3-3.4c-2.4,0-4.4,0.5-6.2,1.5c-1.7,1-3.2,2.4-4.3,4.2
		c-0.8-1.9-2.1-3.3-3.7-4.2c-1.6-0.9-3.6-1.4-5.8-1.4c-2.2,0-4.2,0.4-5.9,1.3c-1.7,0.9-3.1,2.1-4.3,3.7l-0.4-4.4h-8.9V453h9.5v-24.2
		c0.6-0.8,1.4-1.5,2.4-1.9c1-0.5,2.1-0.7,3.4-0.7c1.7,0,3.1,0.5,3.9,1.5c0.9,1,1.3,2.7,1.3,5.2V453h9.5v-21.8c0-0.3,0-0.6,0-0.8
		c0-0.3,0-0.6,0-1c0.6-1,1.4-1.8,2.4-2.3c1-0.6,2.2-0.8,3.5-0.8c1.7,0,3,0.5,3.9,1.5c0.9,1,1.3,2.7,1.3,5.2V453h9.6v-20
		C1301.4,428.4,1300.4,425,1298.4,422.7z"/>
</g>
</svg>
